<?xml version="1.0" encoding="UTF-8" standalone="no"?>
<svg
   xmlns:dc="http://purl.org/dc/elements/1.1/"
   xmlns:cc="http://creativecommons.org/ns#"
   xmlns:rdf="http://www.w3.org/1999/02/22-rdf-syntax-ns#"
   xmlns:svg="http://www.w3.org/2000/svg"
   xmlns="http://www.w3.org/2000/svg"
   xmlns:sodipodi="http://sodipodi.sourceforge.net/DTD/sodipodi-0.dtd"
   xmlns:inkscape="http://www.inkscape.org/namespaces/inkscape"
   version="1.1"
   viewBox="0 0 40 40"
   enable-background="new 0 0 129 129"
   id="svg2"
   inkscape:version="0.91 r13725"
   sodipodi:docname="arrow2.svg"
   width="40"
   height="40">
  <metadata
     id="metadata16">
    <rdf:RDF>
      <cc:Work
         rdf:about="">
        <dc:format>image/svg+xml</dc:format>
        <!--
        <dc:type
           rdf:resource="http://purl.org/dc/dcmitype/StillImage" />
-->
        <dc:title></dc:title>
        <dc:type
           rdf:resource="http://purl.org/dc/dcmitype/StillImage" />
      </cc:Work>
    </rdf:RDF>
  </metadata>
  <defs
     id="defs14" />
  <sodipodi:namedview
     pagecolor="#ffffff"
     bordercolor="#666666"
     borderopacity="1"
     objecttolerance="10"
     gridtolerance="10"
     guidetolerance="10"
     id="view1"
     showgrid="false"
     inkscape:zoom="7.6903176"
     inkscape:cx="38.820356"
     inkscape:cy="22.207058"
     inkscape:window-x="0"
     inkscape:window-y="30"
     inkscape:window-maximized="1"
     inkscape:current-layer="g4"
     inkscape:window-width="1366"
     inkscape:window-height="665" />
  <g
     id="g4"
     transform="matrix(0.34423408,0,0,0.34423408,4.1969019,-8.603098)">
    <g
       id="g6"
       transform="matrix(0,-1,1,0,-18.592,147.592)"
       style="fill:#ffffff;fill-opacity:1">
      <path
         d="m 64.5,122.6 c 32,0 58.1,-26 58.1,-58.1 0,-32.1 -26.1,-58.1 -58.1,-58.1 -32,0 -58.1,26.1 -58.1,58.1 0,32 26.1,58.1 58.1,58.1 z m 0,-108 C 92,14.6 114.4,37 114.4,64.5 114.4,92 92,114.4 64.5,114.4 37,114.4 14.6,92 14.6,64.5 14.6,37 37,14.6 64.5,14.6 Z"
         id="path8"
         inkscape:connector-curvature="0"
         style="fill:#ffffff;fill-opacity:1" />
      <path
         d="m 32.512595,93.5 c 1.554017,0.8 3.496539,1.2 5.633312,1.2 1.942522,0 4.079296,-0.4 5.633314,-1.2 L 95.061795,67.1 c 1.554017,-0.8 2.331026,-1.8 2.331026,-2.9 0,-1.1 -0.777009,-2.1 -2.331026,-2.9 L 43.779221,34.9 c -3.108035,-1.6 -8.158591,-1.6 -11.266626,0 -3.108036,1.6 -3.108036,4.2 0,5.8 l 45.64926,23.5 -45.64926,23.5 c -3.108036,1.6 -3.108036,4.2 0,5.8 z"
         id="path10"
         inkscape:connector-curvature="0"
         style="fill:#ffffff;fill-opacity:1" />
    </g>
  </g>
</svg>
